<svg xmlns="http://www.w3.org/2000/svg" viewBox="0 0 489.39 317.22"><title>welsh-dragon</title><path d="M348.49,8.09l0,.05.07-.05Zm0,.05C310,29.42,275.54,51.55,241.69,79.77,225.44,94,230,105.28,229.4,118c.52,8.56-1.85,16.52-7.12,21.32l-36.13,7.32c-1.16-3.34-2.3-6.66-3.46-10,1.11-5.12,5.33-7.63,14.23-4.42.7-6.58-4.59-9.25-10.77-11.53-2.13-1.66-4.77-2.93-4.42-8.61-1-12.87,19.6.92,19.79.92s-.69-13-10.17-15.59c-5.17-1.83-7.36-7.28-5.39-11.32,4.14-8.26,11.93.65,17.89,1-.23-5.39-1.76-9.23-6.4-13.58-2.5-1.54-8.64-2.7-8.8-5.27-.12-3.5,5.76-5,13.84-4-1.69-4.91-7.12-8.08-14.59-10.38q-2.22-3.84-4.42-7.69c-2.1-3.87-3-4,1.81-11.32C189.65,32,195.44,28,199.8,25.19L195,24.62c.64-5.25.72-7,1.94-15.75-4.68,6.39-10.52,5.25-15.77,7.88,0,0-15,2.66-19.79,9-.2,0-37.66-1.91-37.66-1.91-8,1.11-14.8,3.37-16.13,11.14-18.26,1.84-37.39.21-51.31,17.68C65.74,52.23,74,50,84.69,51.34a11.7,11.7,0,0,1,11,9.78c.19.39,3.09.4,3.09.4l3.45,2.69c.45-1.22.89-2.45,1.33-3.66l3.09,2.12c.32-1.35.65-2.69,1-4l3.06,2.12c.06-1.61.14-3.21.2-4.82l4,2.88V52.49s14.87,0,19.41,9.42c.19.19-41.74,7.7-82.25,4.23l11.72-5.78c-14.77-3-28.65-5.71-41.68-16C27,62.93,52.39,84.68,57.6,84.58c0,.19-5-9-5-9l44,1.91c1.6,4.86.89,10.32,4.81,14.61,0,0-2.43,8,3,11.33.19.38,6.44-16.32,6.44-16.32a61.17,61.17,0,0,0,3.85,7.48c2.79-14.37,18.43-16.71,18.43-16.71s3.27,7.49,3.27,7.69c-4.88.7-11,10.66-7.68,16.13-3.28.06-9.1,9.71-7.3,15-2.76,2.75-9.62,6.4-7.87,17.89-5.41,1.16-8.6,11-6.93,21.52-8.36,7.78-6.31,22.06,1.15,27.85-3.1,2.75-5,4.87-5,8.26-3-1.09-5.66-.18-6.93,1.75-3.61-3.7-8.79-6.93-12.48-3.47-.95-4.38-6.65-9.19-12.89-8.63a11.73,11.73,0,0,0-8.63-12.32s-1.34-21.62-7.89-28.63c-.65-3.92.37-6.59,5.77-9.81,5.4-2.87,6.54-5.11,6.15-13.26C68,112.37,69.6,106.81,63,103c.2,6.48-1.79,9.6-4.42,12.47-3.14-.45-4.24,3.21-6.35,4.81-3-4,6.24-10.16-.58-19-.38-.39-4.75-11.58-15.56-11.33a14.76,14.76,0,0,1,7.3,13.26c-3.41,9.61-5.14,17-1.73,28.06-4.48-6.72-7-19.51-10.74-21.73-3.26-.63-4.85-8.34-17.5-6.14,5.46,1.46,7.19,5.63,8.66,9.41-3.35,1.73-1.69,6.28.76,9.41-.47,7.38,3.95,11.69,10.56,14.44q-1.64,15.08-3.27,30.15c-2.62-.34-6.66,9.89-8.26,10.2-2.57,1.59-7.06,5.89-1.91,7.11-1.53,5.52-3,8.84-11.16,10,0,0,8.68,5.15,15.88-3.66,7.71-.2,5.18-9.4,8.91-13.44,0-.2,2.11-1.53,5.2-9.63,1.35,7.24,8.77,29.38,25.55,40.38,14.62,15.65,26.64,30.44,26.51,51.3,5.71-5.31,9.12-13.72,11.74-21.73,7.94-2.76,19.29-3.81,29.42-3.36-1.74,3.66-3.68,7.16-1.18,9.53-7.06,2.43-8.61,7.56-5.77,12.68-7.45,5.06-7.94,8.31-8.06,16.71C103.2,290.57,94.7,290,81.05,285.4,76.57,282.77,69.63,279,66.43,281c-5.89-3.93-14.37-4.51-15.76,4.42,4.42-3.66,7.06-3,10.59.58-.71,1.79-1.31,3.58,1.33,4.6l-3.45,3.85c-6.35-1-14.88-.93-17.1,8.26,3.25-2.7,10.48-3.33,16.31-.76l3.27,1.15c.13,1.47.27,2.95.39,4.42,0,0-8.64-1.33-10.95,12.68,8.1-8.62,13.83-6.35,13.83-6.35,3.12,4.57,14.62,3.88,22.88-3.64,11.61-6.49,15,2.84,22.49-3.27,6.21-4.63,13.56-1.55,18.62,3.85,5.83,2.18,11.93,4,16.73,0,0,0,5.87-3.74,11.72,2.3.06-6.82-4.77-10.44-11.33-10.57l-1.93-1.93c-6.15-1.28-13.06-.76-18.44-3.84,2.54-9.63,6.23-18.35,13.45-25.76,8.9-9.54,15.45-13.88,26.7-28.49-.44,8.25,5.89,17.44,9.23,25.82,0,0,6.71-10.72,7.68-19.42.2,0,8.42-4.28,11.93-7.92,7.4,4.59,19.48-3.68,27.27-10.52,4.81,1.82,8.46,1.69,14,0-4.48,9.12,2.6,17.59,13.84,21.13,1,8.05,9.17,9.74,21.52,9.8.52,4.74,7.87,5.39,7.87,5.39-4.65,2.16-7.07,4.33-6.91,9.23-4.76,0-8.36,1.23-9.62,6.72-6.54.11-13.2.61-18.83,3.84-6-.93-13.34-3.43-18.06-8.26-2.44-2.05-3.05-5-7.3-6.15-2.7-3.18-5.92-2.47-6.93.58-2.78-2.18-13.24-3.19-15,6.72,4.88-3.57,9.25-4.93,12.31-.57-1.67,3,4.06,4.75,9,6,3.52.22,9.76,3.42,11.72,8.84-4.54,1.37-11.41.92-16-2.51a10.41,10.41,0,0,0-12.48-.76c-4.15-2.65-14,2.35-14.43,10.36,4.17-3.82,8-5.67,11.74-3.25-1.88.45-1.17.63-1,1.73,3.21,1.85,6.4,3.71,9.6,5.57-4.71,1.24-9.13,3.12-7.09,11.9,0,0,3.84-7.59,12.48-4.79.19-.19,1.19,2.71,3.66.76,3.74-4.26,12.28-6.16,19.79-6.91,6-.72,12-2.49,17.29,1,4.67-2.41,9.87-4,15.19-.19,6.28,2,10.86,9.31,18.83,6,4-2.74,8.83-2.88,13.83,2.7.06-7-5.21-9.39-12.68-11l-5.18-3.08c-4.8-.71-9.63.14-14.43-2.12,25.14-6.5,42.76-20.52,55.17-40.53l11.9,4.21c2.82.18,3,1.16,8.84,2.9.22-8.56-3.46-17.37-18.83-18.25l-20.19-7.69c-4.28-4.52-6.22-14.11-.76-19.8,5.35-4.76,6.28-4.19,9.81-10,4.29-.39,8.33,4,12.29,4,1.88,5.59,12.72,10.53,19.61,8.84,4.32,3.82,12.53,5.94,21.52,2.88,5.11,4.47,11.76,6.33,19.59,2.87,2.08,2.08,6.47,3.74,11.53,2.7.39,0,2.56,5.55,8.08,7.5-2.41,2.34-.93,12.5,1.54,16.14a16.33,16.33,0,0,0-.78,12.1c-5.57,3.58-6.7,6.25-4.21,12.29-7.29,11.72-16,13.06-24.22,9.44l-8.83-5.59-9.42-9.21c-1.6-1.5-4.9-2-5.59,1.34,0,0-12.08-2.7-13.05,7.5,5-4.88,12.11-.58,12.11-.39a2.48,2.48,0,0,0-.4,3.29c.3-.24,8.82,3.18,16.42,6.45a45.41,45.41,0,0,1,6.83,3c-2-.91-4.31-1.93-6.83-3-4.63-1.76-9.13-3.16-10.45-2.81-4.31-.4-8.87-.94-11,2.3-4.62,1.95-11.85,3.52-11.53,12.11,3.12-5.12,7.4-4.9,12.86-4.42l-.36,1.15c5.93,2.7,4.8-.74,10.33-1.25,4.62-.42,11.18,1.24,14.64,2.4-4.36,1.28-10.28.74-13.07,3.84-.52,1-2.31.61-1.52,3.06,0,0-8.5-.22-10.78,11.53,8.64-5.53,15.19-5.36,15.38-5.36s2.69.58,2.69.58,10.38-6.93,10.57-6.93,10-4.36,14.59.57a12.28,12.28,0,0,0,12.32-.39c8.07-3.51,15.63-3.76,23.06,1.18l6.72,4,2.88-1.93a13.15,13.15,0,0,1,13.19,4.63c-2.31-11.72-10.68-12.11-10.68-12.11l-1.94-1.73c-4-1.53-7.93-3.08-11.9-4.62-1.73-4.29-6.09-7.71-1.75-12.87,4.44-22,9.74-38.59,1.15-60.93,8,3.46,14,14.16,24,10.39,0-9-33-26-58.23-39.69,41.32-2.11,91-32.61,71.88-71.37q4.52-14,9-28.06c4.25,8.56,12.85,15.09,20.57,17.86-6.36-12.15-10-49.3-6.35-74.94-16.65,20.56-35,38.82-54.57,57.36,9.61,2.24,18,.66,27.29-.49-2.62,5.38-5.17,10.78-7.8,16.16-25.39-14.87-55.2-3.71-55.42,16.14.86,23.14,29.48,26.43,46,18.36C439.49,166.9,391,159.13,391,159.13c-17.23-5.94-33.6-4.92-51.7-4.79C343.06,142.77,364,132.5,379.86,137c-22.28-25,3.15-56,33.81-65.53C380.25,60.48,409,35,434,16.75c0,0-71.93,30.27-78.49,30.17-20.46-1.53-14.88-25.75-7.09-38.78ZM122.69,37.21a24.08,24.08,0,0,1,5.2.55c3.24.79,7.19,1.25,7.14,2.21-1.51,2.51-5.2,5.55-8.82,5.36s-5.72-2.35-6.93-7.8A10.94,10.94,0,0,1,122.69,37.21Zm302.79,85.35c4.72-.07,10.37,1.93,15.88,7.78-2.65,7.63-25.66,11.56-27.21.25-.46-3.42,4.44-7.94,11.33-8Z" transform="translate(-6.11 -5.73)" style="fill:#d21034;stroke:#000;stroke-width:1.7999999523162842px"/><path d="M146.45,104l3.49,5.08m-.16.16s0,6.82,1.43,7M148,119.84c.16.16,3.65,6,3.65,6m-10,1.59c.16,0,4.44,4.92,4.44,4.92m3.72-3.82c0,.16,4.05,7.78,4.37,7.78m-9.67-2.53s1.42,9.2,2.69,8.88m-8.69,8,4.09,6.15m3.49-12.69s2.22,8.72,4,7.93m1.74-13.17c.16.16,4.13,5.87,5.24,5.08m-1,2.22,3.8,7.61M149.78,152c.16.32,3.17,9,3.17,9m-10.47-4.44s2.86,9.67,5.4,8.09m-6.51,4.76s.16,5.07,2.7,5.39m1.75-7.93c0,.16,2.53,3.65,2.53,3.65m4.71-9.69,2.11,3.34m4.6-9.51,3.18,4m-17.9-49.45c.16,4.28,6.95-1.51,9.65-5.16m-12.53,20A62.74,62.74,0,0,0,155.33,111m-15.54,25.7c5.23-1.43,14.86-13.07,16.77-19.26m-17.88,30.84c1.42.63,19.42-12.32,19.89-21.84M138.2,158.22A37.26,37.26,0,0,0,161.47,136m-24.15,36s26.26-15.75,27.69-27.33m177.34,53.78S340.65,212,327,214m19.62,8.62c.16-.16,13-14.28,9.68-18.56M376.45,209a24.17,24.17,0,0,1-8.25,16.66m24.27-13.8s.32,11.9-4.76,16.65M407.22,219s-5.69,11.14-7.75,12.25m7.51,7.49s7.49,1.87,9.86-3.05m-7.92,19.21A9.56,9.56,0,0,0,419,249.47m-10.83,17.89s5.6,4.7,9.41-1.48M327.76,175.7s-.63,24.11,33.31,29c37.92,10.47,55.84,4.92,58.06,47.43-1.43,16.18-3.44,34.46-15.17,27.48m-112.2-81.72s5.4,9.67,11.9,9c8.57-2.54,11.74,2.69,11.74,2.69m-46.79-2.06s14.27,7,26.49-4.28m-24.91-5.71c1.27,16.65-19.19,26.17-27.28,24.59m28.25,39.23c.16,0,11.09-6.56,8.87-11.16m-30.62,1.43c.32-.32,18.4-2.06,21.73-8.57M241,225c0-.16,25.67.07,27.41,4.83m6.7-20.06s-25.06,42.83,21.25,42.83m-47.74-43.46s-5.4,16-13,21.41m-13.64-27s9.31,18-.05,26.89M197.7,208.69c.16.32,3,25.54-3.33,32.68m-8.72-31.88s.95,16-3.81,21.73S183,248.79,183,248.79m-57.82,7.7s3.41,6,8.17,3.91m-2.38-17s7.61,3.33,10.15,2.06m-1.9-29s-11.26,3.17-7,16.49c6.5,5.24,12.85,4.44,12.85,4.44M117,273.09c-.16,0,1.27,10.47,8.57,2.54C130.6,265,146.62,235,150.27,224.71m7.46-4.91s-7.78-6-7.46,2.38c-.16,5.23,2.38,6.5,2.38,6.5.32,3.81,3.65,9.2,6.34,4.28,1.12-4.76-.79-6.82-.79-6.82m4.44-8.57c-7-.47-10.78,14.92,2.7,5.24m4.6-10.47s-1.74,2.38-4.44-.16c-1.43-2.54-6.5,11.42,2.38,11.9,1.58-4.13,6.5-5.24,6.5-5.24m4.13-13.16s-4,1.9-5.4,1.58c-4.76,1.12-3.8,12.22,2.22,11.58a65.56,65.56,0,0,0,4.29-5.71m-38.52-22c-.16,0-15.74,24.51,8.69,31m189.08-67.89s-9.52,8.09-.64,21.1c-29.5-.48-45.36,13.16-46.63,22.36-37.59-2.69-30.77,8.41-43,12.06-16.34-13.64-40.29-6-38.7,7.61-10.95-15.39-27.76-7.93-29.82-4.12s-1.27-18.88-1.27-18.88-10.95,4.92-18.56,14c.16-6,0-15.86,0-19-9.15,1.85-18,2-27.44,1.75m-24.75-7s13.64,7.61,30.46-2.7M107,156.66s10.63,9.51,30.62,6.5m-24-28.39s2.38,7.77,25.22,8.25m-17.48-26.23s8.6,10.52,20.18,8.94m-12.85-24s3.33,5.71,16,6.67m-8.56-23.32s6.66,7.3,14.27,6m25.36-65.33a8,8,0,0,1,7.87-1.48m-10,17.05s-9.18-.33-8.52-3.94c.66-4.1,9.67-7.05,9.67-7.05s12-7.7,13.77-10.32M134.48,62l11.64,22.29L151.69,76l2.95,5.73,4.75-8.35,8.2,5.24-3.11-10.16,6.88-.49a10.15,10.15,0,0,0-8-5.9C165,60.73,170.7,57,170.7,57A12.59,12.59,0,0,0,162.34,53a26.93,26.93,0,0,0,3.77-6.23c-.16,0-5.08-1.14-5.08-1.14s11.64,3.77,20.65-1.48m-22.28-18a13.18,13.18,0,0,1-3.11,7.21M114.5,38.44s7.19-2,12.58-.85,12.49,3,12.49,3,8.52-1.14,11.31-3.11M96.63,43.2a55.8,55.8,0,0,0-1.31,5.73c0,1.64-5.25,3.77-5.25,3.77m9.84-16.55s4.59,5.73,4.75,9-3.44,5.74-3.44,5.74M52.54,75.32l-4.75-7.7,4.26-1.48m86.32,115.43c-3.8-4.91,2.86-80.42,17-100.09-4.92,35.54,11.42,71.86,15.54,71.7M95.47,60.38s6.42,2.46,19.75-8.09m18,25.54,9.56.12m286.88-59.3S270.42,93.06,268.1,97C295,88.89,409,69.88,411.81,71.5c-6.72,1.63-145.1,33.38-151.59,41,34.54-1.16,106.86,11.13,118.21,22.95-24.57-5.57-98.05-16.46-120.53-11.59,16.46,3.94,79.5,44.73,79.5,51.22-9.5-9-85.3-40.33-88.31-37.31,17.38,10.43,42,49.13,42,58.64-5.1-8.12-48.9-55.17-51.45-52.16,4.63,6.5,13.82,62,9.12,64.61,0-6.72-17-55.33-18.39-56.72-3.48.92-25.16,59.31-20.86,64.74-2.79-19.47.46-60.11,5.79-58.49-9.5,1.39-39.83,41.38-36.59,47.64.93-10,2.29-16.58,19.44-49.72-19,1.16-58.41,26-65.14,34.77,5.34-15.76,38.71-42.42,53.32-44.28m68.73-58c16.83-9.34,68.84-28.4,103.53-42.38m-136.2,92.64s11.47-.16,22.95-31.3c11.3-42.61,101-90.14,102.76-99M70.62,181.94s-2.67,5.67-6,7.31m18.8,1.28s-3.55,6.92-4.37,10.19m16.68-6.81s3,9.43.53,13.86m-34.8-38.34c-9,5.08,5.13,37.19,47.91,40.31m-6.88-17.38s-1.15,5.74,6.88,17.21c-2.3,12.79,9.72,22.83,14.47,24.47M99.09,77.15c0-.16,1.31-3.44,1.31-3.44l1.46,3.79,2.36-.06,1.55-3.8L107,77.45h2.34l1.44-4.23,2.18,4,1.85.1,1.46-4.88,3,3.49,1.09-.42.93-4.88,3,3.41.85-.5,1.38-4.81L129,72.31l1.24-.41,1.15-4,2.29,3.72m-37.21,6,17.87-.27c5.69-.08,15.06-8,25.55-5.51m-81.11,44s2.95,6.39,7,2.79m-13.93,1.47s-5.74,15.41,1.15,19m-9.35-36s0,3.6,7.54-2M20.24,184s6.07,1.8,5.08,6.39m-2.79-77.2s3.77,1.8,7.38-3.77M62.53,290.54c5.9-.32,7.17,2.34,12.53,2.34,6.19.19,12.21-2.34,20.08-4.47m50.65,14.26c-.17,0-2.79,5.57-.5,8.36M61.7,303.16s9.35-7.7,14.26-3c4.76,1.64,7.38,1.31,7.38,1.31M66.63,281.2s2.29,5.9-5.41,5.08m-2.3,8.53s4.92,3.11-.65,7.21m3.6,5.57s6.72,1,2.79,6.39m214.27-47.22S297.18,268.65,298,270c2.1-2.2,18.4-15.4-1.63-17.29-3.36,13.74-17.14,14.25-17.45,14Zm-6.5,9.12c6.81,5.46,4,8.72,25.42-5.64M262.67,282.7s10.07,10.8,17.41-2.31m-36.6,6.19-13.64,7.13M205.3,303.78s8.29-7.13,12.17-3.35,20.34-3.26,20.34-3.26m-26.32-24.33s2.83,5.66-2.62,6.4m-8.18,11.33s2.87,5.32-2.69,6.79m9.08,7.68s8.6.42,5.56,6.92m74.89-8.07s-4.72,4-1.26,8.49M356,275.25s5.46,2.63-1,7.14m-5.46,9.44s4.09,4.3,1.37,7.86m10.06,8.6s5.67,1.57,5,6.29m74.25-10.48s-4.72,3.46-2.2,8M356.17,166.25C367.5,164.89,383.75,190.06,392,195m49.55-64.39s5.73,5,.69,17.09m9.94-36.36c1.6,1.24,7.77,4.53,11.84,12.15M468,73.64c0,.11-8,21.5-8,21.5m16.89-22.55s-1.58,19.09-3.88,23m-31.64,34.79c-2.66,7.63-25.67,11.54-27.21.23C413.38,124.83,427.79,116,441.37,130.35Z" transform="translate(-6.11 -5.73)" style="fill:none;stroke:#000;stroke-linejoin:round;stroke-width:1.7999999523162842px"/><path d="M122.51,37.27l8.85,1.64S125.13,47.27,122.51,37.27Z" transform="translate(-6.11 -5.73)" style="stroke:#000;stroke-linejoin:round;stroke-width:1.7999999523162842px"/></svg>